<mxfile host="app.diagrams.net" modified="2023-05-26T01:02:20.967Z" agent="Mozilla/5.0 (Windows NT 10.0; Win64; x64) AppleWebKit/537.36 (KHTML, like Gecko) Chrome/113.0.0.0 Safari/537.36" etag="lTrA155GB-vX7EHR_s_p" version="21.3.2" type="device">
  <diagram name="페이지-1" id="1O2f0A3COCwuhvM_R2Ib">
    <mxGraphModel dx="989" dy="482" grid="1" gridSize="10" guides="1" tooltips="1" connect="1" arrows="1" fold="1" page="1" pageScale="1" pageWidth="4681" pageHeight="3300" math="0" shadow="0">
      <root>
        <mxCell id="0" />
        <mxCell id="1" parent="0" />
        <mxCell id="Qljr4pbe57pNP7YJalMn-15" style="rounded=0;orthogonalLoop=1;jettySize=auto;html=1;" edge="1" parent="1" source="Qljr4pbe57pNP7YJalMn-1" target="Qljr4pbe57pNP7YJalMn-2">
          <mxGeometry relative="1" as="geometry" />
        </mxCell>
        <mxCell id="Qljr4pbe57pNP7YJalMn-18" style="edgeStyle=none;shape=connector;rounded=0;orthogonalLoop=1;jettySize=auto;html=1;labelBackgroundColor=default;strokeColor=default;fontFamily=Helvetica;fontSize=11;fontColor=default;endArrow=classic;" edge="1" parent="1" source="Qljr4pbe57pNP7YJalMn-1" target="Qljr4pbe57pNP7YJalMn-3">
          <mxGeometry relative="1" as="geometry" />
        </mxCell>
        <mxCell id="Qljr4pbe57pNP7YJalMn-19" style="edgeStyle=none;shape=connector;rounded=0;orthogonalLoop=1;jettySize=auto;html=1;labelBackgroundColor=default;strokeColor=default;fontFamily=Helvetica;fontSize=11;fontColor=default;endArrow=classic;" edge="1" parent="1" source="Qljr4pbe57pNP7YJalMn-1" target="Qljr4pbe57pNP7YJalMn-5">
          <mxGeometry relative="1" as="geometry" />
        </mxCell>
        <mxCell id="Qljr4pbe57pNP7YJalMn-20" style="edgeStyle=none;shape=connector;rounded=0;orthogonalLoop=1;jettySize=auto;html=1;labelBackgroundColor=default;strokeColor=default;fontFamily=Helvetica;fontSize=11;fontColor=default;endArrow=classic;" edge="1" parent="1" source="Qljr4pbe57pNP7YJalMn-1" target="Qljr4pbe57pNP7YJalMn-7">
          <mxGeometry relative="1" as="geometry" />
        </mxCell>
        <mxCell id="Qljr4pbe57pNP7YJalMn-21" style="edgeStyle=none;shape=connector;rounded=0;orthogonalLoop=1;jettySize=auto;html=1;labelBackgroundColor=default;strokeColor=default;fontFamily=Helvetica;fontSize=11;fontColor=default;endArrow=classic;" edge="1" parent="1" source="Qljr4pbe57pNP7YJalMn-1" target="Qljr4pbe57pNP7YJalMn-4">
          <mxGeometry relative="1" as="geometry" />
        </mxCell>
        <mxCell id="Qljr4pbe57pNP7YJalMn-1" value="학생정보" style="rounded=1;arcSize=10;whiteSpace=wrap;html=1;align=center;" vertex="1" parent="1">
          <mxGeometry x="640" y="200" width="100" height="40" as="geometry" />
        </mxCell>
        <mxCell id="Qljr4pbe57pNP7YJalMn-2" value="학번" style="ellipse;whiteSpace=wrap;html=1;align=center;fontStyle=4;" vertex="1" parent="1">
          <mxGeometry x="400" y="280" width="100" height="40" as="geometry" />
        </mxCell>
        <mxCell id="Qljr4pbe57pNP7YJalMn-3" value="이름" style="ellipse;whiteSpace=wrap;html=1;align=center;" vertex="1" parent="1">
          <mxGeometry x="520" y="280" width="100" height="40" as="geometry" />
        </mxCell>
        <mxCell id="Qljr4pbe57pNP7YJalMn-4" value="전화번호" style="ellipse;whiteSpace=wrap;html=1;align=center;" vertex="1" parent="1">
          <mxGeometry x="880" y="280" width="100" height="40" as="geometry" />
        </mxCell>
        <mxCell id="Qljr4pbe57pNP7YJalMn-5" value="학과" style="ellipse;whiteSpace=wrap;html=1;align=center;" vertex="1" parent="1">
          <mxGeometry x="640" y="280" width="100" height="40" as="geometry" />
        </mxCell>
        <mxCell id="Qljr4pbe57pNP7YJalMn-7" value="학년" style="ellipse;whiteSpace=wrap;html=1;align=center;" vertex="1" parent="1">
          <mxGeometry x="760" y="280" width="100" height="40" as="geometry" />
        </mxCell>
      </root>
    </mxGraphModel>
  </diagram>
</mxfile>
